<svg version="1" xmlns="http://www.w3.org/2000/svg" width="1365.333" height="1365.333" viewBox="0 0 1024.000000 1024.000000"><path d="M0 512v512h1024V0H0v512zm752.5-201c24.8 1 35.6 2 48.5 4.6 40 8.3 70.3 31.7 84.5 65.4 11 25.9 13.5 49.2 13.5 125.5 0 92.7-3.9 115.3-25.2 147.2-18.1 27.1-46.9 41.6-95.3 47.8-35.3 4.5-95.2 4.5-126.5-.1-18-2.6-37.1-8.5-46.8-14.4l-3.3-2 2.1-3c3.4-4.8 10.7-21 12.5-28 2.6-9.9 3.1-30.5 1-41.5-4.2-22.6-18.3-44.7-37.1-58.1-8.3-5.9-21.4-12.1-30.3-14.2l-7.3-1.7.5-42.5c.8-61.4 3.7-86.3 12.7-111.2 6.4-17.5 21.4-35.9 39.2-47.8 29.8-20 53.6-24.9 128.3-26.8 2.8-.1 15.8.3 29 .8zM257 386.5V460h133V313h103v229.6l-7.7 3.8c-26.3 12.9-45.1 37.3-50.8 65.5-1.4 6.5-1.6 11.5-1.2 22 .6 15.9 2.2 23 8.2 35.8 5.3 11.2 8.9 16.5 17.3 25.4l6.4 6.9H390V549H257v153H154V508.2c0-106.6.3-194.2.7-194.5.3-.4 23.5-.7 51.5-.7H257v73.5zm297.5 177c15 3.2 23.8 10.4 27.5 22.4 4 12.8 3.6 33.5-.9 43.6-2.5 5.6-7.5 10.3-14.6 13.6-5.7 2.7-27.4 8.7-44.9 12.5-10 2.1-13.4 4.9-14.2 11.6l-.7 4.8H585v29H469.8l.4-22.3c.4-17 .9-23.4 2.1-27.3 2.3-7 8.3-13.5 15.4-16.7 5.5-2.4 24-7.4 41.8-11.2 9.9-2.2 15.3-4.8 16.5-8.1 1.3-3.4 1.3-17-.1-19.6-1.9-3.5-7-4.8-18.9-4.8-16.3 0-18.2 1.5-19.6 14.9l-.7 7.1H471v-10c0-12.2 1.3-18.5 5-24.4 5.9-9.2 17.5-14.9 34-16.6 11.2-1.2 35.7-.3 44.5 1.5z"/><path d="M694.7 401c-31.4 3.6-41.4 15.4-44.6 52.5-1.4 15.8-1.4 98.1 0 112.1 3.1 32.1 11 43 34 47 18.7 3.2 61.7 2.7 75.4-1 12.1-3.2 18.9-8.7 24.4-19.7 7.3-14.5 8.9-27.3 9.8-74.9.7-40.7-.7-71.6-3.6-83.2-4.9-19.2-12.9-27.4-30.6-31.4-8.3-1.9-52.3-2.8-64.8-1.4z"/></svg>