<?xml version="1.0" standalone="no"?>
<!DOCTYPE svg PUBLIC "-//W3C//DTD SVG 20010904//EN"
 "http://www.w3.org/TR/2001/REC-SVG-20010904/DTD/svg10.dtd">
<svg version="1.0" xmlns="http://www.w3.org/2000/svg"
 width="1024.000000pt" height="1024.000000pt" viewBox="0 0 1024.000000 1024.000000"
 preserveAspectRatio="xMidYMid meet">
<metadata>
Created by potrace 1.11, written by Peter Selinger 2001-2013
</metadata>
<g transform="translate(0.000000,1024.000000) scale(0.100000,-0.100000)"
fill="#000000" stroke="none">
<path d="M1700 10229 c-462 -52 -903 -278 -1208 -619 -272 -304 -437 -676
-481 -1082 -15 -136 -15 -6680 0 -6816 26 -238 84 -438 190 -651 189 -380 479
-671 860 -860 213 -106 413 -164 651 -190 136 -15 6680 -15 6816 0 238 26 438
84 651 190 380 189 671 479 860 860 106 213 164 413 190 651 15 136 15 6680 0
6816 -51 473 -273 911 -619 1220 -304 272 -676 437 -1082 481 -119 13 -6713
13 -6828 0z m1520 -2124 l0 -94 143 -3 142 -3 3 -82 3 -83 -146 0 -145 0 0
-283 c0 -207 3 -286 12 -295 18 -18 93 -15 109 4 7 9 15 51 17 100 l5 84 89 0
89 0 -6 -72 c-15 -174 -39 -228 -119 -267 -39 -20 -65 -25 -130 -25 -104 -1
-148 9 -186 41 -64 53 -65 57 -68 401 l-4 312 -44 0 -45 0 3 83 3 82 43 3 42
3 0 88 c0 48 3 91 7 94 3 4 46 7 95 7 l88 0 0 -95z m5740 0 l0 -94 143 -3 142
-3 3 -82 3 -83 -146 0 -145 0 0 -283 c0 -207 3 -286 12 -295 18 -18 93 -15
109 4 7 9 15 51 17 100 l5 84 89 0 89 0 -6 -72 c-15 -174 -39 -228 -119 -267
-39 -20 -65 -25 -130 -25 -104 -1 -148 9 -186 41 -64 53 -65 57 -68 401 l-4
312 -44 0 -45 0 3 83 3 82 43 3 42 3 0 88 c0 48 3 91 7 94 3 4 46 7 95 7 l88
0 0 -95z m-7771 -96 c74 -11 107 -27 148 -67 l29 -29 38 33 c56 48 124 69 226
67 142 -2 218 -42 267 -140 l28 -58 0 -360 0 -360 -90 0 -90 0 -5 335 c-5 360
-6 364 -59 392 -36 19 -159 16 -198 -5 -57 -30 -58 -34 -63 -392 l-5 -330 -90
0 -90 0 -5 340 c-4 245 -8 346 -17 362 -18 30 -75 46 -144 40 -74 -6 -116 -31
-143 -82 -20 -37 -21 -60 -26 -350 l-5 -310 -90 0 -90 0 0 455 0 455 90 0 90
0 3 -28 3 -27 27 18 c63 44 154 59 261 41z m1378 1 c137 -18 207 -74 239 -191
20 -76 29 -333 15 -449 -19 -154 -61 -224 -155 -259 -68 -25 -192 -34 -298
-22 -178 21 -237 86 -259 292 -13 116 -7 345 11 427 16 73 65 141 121 169 71
37 199 50 326 33z m1570 0 c137 -18 207 -74 239 -191 20 -76 29 -333 15 -449
-19 -154 -61 -224 -155 -259 -68 -25 -192 -34 -298 -22 -178 21 -237 86 -259
292 -13 116 -7 345 11 427 16 73 65 141 121 169 71 37 199 50 326 33z m919
-16 c42 -17 90 -75 103 -121 6 -21 11 -80 11 -130 l0 -93 -84 0 -83 0 -5 81
c-6 94 -16 109 -81 116 -53 6 -107 -10 -133 -38 -18 -20 -19 -47 -24 -368 l-5
-346 -90 0 -90 0 0 455 0 455 88 3 c82 3 89 1 94 -17 5 -19 7 -20 36 -5 65 34
192 38 263 8z m791 0 c99 -27 141 -90 146 -214 l2 -65 -90 0 -90 0 -3 52 c-2
32 -9 56 -19 65 -23 19 -253 18 -276 -1 -22 -17 -24 -152 -4 -169 7 -6 74 -16
148 -22 224 -17 280 -36 323 -109 16 -28 20 -53 20 -140 0 -180 -40 -252 -162
-287 -81 -24 -317 -25 -388 -1 -95 32 -135 98 -142 235 l-5 93 93 -3 94 -3 -3
-61 c-4 -93 11 -105 130 -111 116 -6 176 7 189 43 6 14 10 52 10 84 0 49 -4
61 -20 70 -10 6 -79 15 -152 21 -159 12 -226 29 -272 70 -47 41 -60 86 -60
204 1 184 54 246 229 265 90 10 236 2 302 -16z m885 0 c63 -20 121 -78 146
-147 52 -138 55 -433 6 -581 -19 -57 -72 -120 -126 -147 -84 -43 -278 -45
-359 -4 l-29 15 -2 -162 -3 -163 -90 0 -90 0 0 600 0 600 90 0 c86 0 90 -1 93
-22 l3 -23 41 21 c79 41 217 46 320 13z m815 16 c137 -18 207 -74 239 -191 20
-76 29 -333 15 -449 -19 -154 -61 -224 -155 -259 -68 -25 -192 -34 -298 -22
-178 21 -237 86 -259 292 -13 116 -7 345 11 427 16 73 65 141 121 169 71 37
199 50 326 33z m919 -16 c42 -17 90 -75 103 -121 6 -21 11 -80 11 -130 l0 -93
-84 0 -83 0 -5 81 c-6 94 -16 109 -81 116 -53 6 -107 -10 -133 -38 -18 -20
-19 -47 -24 -368 l-5 -346 -90 0 -90 0 0 455 0 455 88 3 c82 3 89 1 94 -17 5
-19 7 -20 36 -5 65 34 192 38 263 8z m-476 -1664 c269 -19 455 -58 620 -129
402 -173 629 -464 719 -921 36 -181 43 -300 48 -871 8 -808 -13 -1103 -94
-1364 -30 -97 -96 -231 -160 -328 -57 -87 -196 -228 -276 -280 -320 -211 -761
-287 -1582 -274 -548 9 -785 48 -1016 168 l-77 40 53 102 c104 198 145 371
145 607 0 306 -84 559 -267 802 -122 161 -300 305 -485 393 l-78 37 5 67 c2
36 7 156 10 266 16 569 90 907 249 1129 58 81 214 230 301 288 101 66 242 134
359 173 147 49 324 76 646 98 115 8 751 6 880 -3z m-6170 -800 l0 -780 715 0
715 0 0 780 0 780 555 0 555 0 0 -1050 c0 -827 -3 -1051 -12 -1060 -7 -5 -54
-41 -103 -79 -207 -157 -371 -390 -449 -640 -80 -254 -80 -548 0 -802 46 -149
141 -322 250 -456 l27 -33 -412 0 -411 0 0 805 0 805 -715 0 -715 0 0 -805 0
-805 -555 0 -555 0 0 2060 0 2060 555 0 555 0 0 -780z m3573 -1609 c253 -68
337 -202 337 -541 0 -273 -60 -396 -230 -473 -87 -40 -163 -61 -423 -117 -104
-22 -203 -47 -220 -54 -58 -24 -78 -56 -88 -140 -5 -42 -7 -81 -4 -86 4 -6
191 -10 486 -10 l479 0 0 -160 0 -160 -680 0 -680 0 0 218 c0 257 11 365 47
445 59 132 162 181 542 258 286 58 339 79 363 147 17 49 17 236 0 284 -9 24
-26 45 -50 60 -34 21 -51 23 -192 26 -270 7 -300 -15 -316 -230 l-6 -88 -190
0 -191 0 5 158 c4 129 9 167 27 213 46 121 125 193 256 234 117 38 186 44 430
41 185 -3 232 -7 298 -25z"/>
<path d="M2359 7839 c-47 -17 -54 -53 -54 -289 0 -249 5 -274 64 -290 20 -5
63 -10 96 -10 33 0 76 5 96 10 59 16 64 41 64 290 0 241 -6 271 -57 289 -38
13 -173 13 -209 0z"/>
<path d="M3929 7839 c-47 -17 -54 -53 -54 -289 0 -249 5 -274 64 -290 20 -5
63 -10 96 -10 33 0 76 5 96 10 59 16 64 41 64 290 0 241 -6 271 -57 289 -38
13 -173 13 -209 0z"/>
<path d="M6463 7830 c-75 -23 -97 -104 -91 -320 6 -219 25 -245 178 -245 158
0 165 13 165 285 0 208 -6 243 -48 270 -27 17 -160 23 -204 10z"/>
<path d="M7339 7839 c-47 -17 -54 -53 -54 -289 0 -249 5 -274 64 -290 20 -5
63 -10 96 -10 33 0 76 5 96 10 59 16 64 41 64 290 0 241 -6 271 -57 289 -38
13 -173 13 -209 0z"/>
<path d="M7161 5380 c-228 -32 -319 -87 -391 -235 -62 -127 -78 -269 -87 -765
-6 -391 6 -725 32 -872 42 -244 138 -340 375 -378 111 -17 444 -24 591 -11
279 23 381 75 459 234 82 166 98 291 106 812 7 402 -5 712 -31 841 -44 210
-142 317 -330 360 -81 19 -614 29 -724 14z"/>
</g>
</svg>
